<svg width="120" height="96" viewBox="0 0 120 96" fill="none" xmlns="http://www.w3.org/2000/svg">
<path d="M59.9812 60C70.7456 60 79.3125 51.27 79.3125 40.5C79.3125 29.73 70.5862 21 59.9812 21C49.2169 21 40.65 29.73 40.65 40.5C40.4813 51.2625 49.2187 60 59.9812 60ZM69.3562 66H50.6438C35.925 66 24 77.1937 24 90.9937C24 93.7687 26.3812 96 29.325 96H90.675C93.6188 96 96 93.7687 96 90.9937C96 77.1937 84.075 66 69.3562 66ZM96 30C104.284 30 111 23.2838 111 15C111 6.71625 104.288 0 96 0C87.7162 0 81 6.71625 81 15C81 23.2838 87.7125 30 96 30ZM34.4812 40.5C34.4812 39.4783 34.6654 38.5069 34.7829 37.5169C32.7375 36.3937 30.4875 36 28.1062 36H16.515C7.395 36 0 43.8375 0 53.4937C0 55.425 1.47881 57 3.30375 57H40.71C36.8812 52.5375 34.4812 46.8188 34.4812 40.5V40.5ZM24 30C32.2838 30 39 23.2838 39 15C39 6.71625 32.2875 0 24 0C15.7162 0 9 6.71625 9 15C9 23.2838 15.7162 30 24 30ZM103.481 36H91.8862C89.4862 36 87.2213 36.5694 85.1625 37.545C85.275 38.5313 85.4625 39.4875 85.4625 40.5C85.4625 46.8206 83.0663 52.5394 79.245 57H116.689C118.519 57 120 55.425 120 53.4937C120 43.8375 112.613 36 103.481 36V36Z" fill="#0377C3"/>
</svg>
