<svg width="96" height="84" viewBox="0 0 96 84" fill="none" xmlns="http://www.w3.org/2000/svg">
<path d="M6 0C9.31312 0 12 2.68687 12 6V69C12 70.65 13.3425 72 15 72H90C93.3187 72 96 74.6813 96 78C96 81.3187 93.3187 84 90 84H15C6.71625 84 0 77.2875 0 69V6C0 2.68687 2.68687 0 6 0ZM24 18C24 14.6812 26.6812 12 30 12H48C51.3187 12 54 14.6812 54 18C54 21.3188 51.3187 24 48 24H30C26.6812 24 24 21.3188 24 18ZM66 30C69.3187 30 72 32.6813 72 36C72 39.3187 69.3187 42 66 42H42C38.6813 42 36 39.3187 36 36C36 32.6813 38.6813 30 42 30H66ZM84 48C87.3187 48 90 50.6813 90 54C90 57.3187 87.3187 60 84 60H72C68.6813 60 66 57.3187 66 54C66 50.6813 68.6813 48 72 48H84Z" fill="#0377C3"/>
</svg>
