<svg width="96" height="96" viewBox="0 0 96 96" fill="none" xmlns="http://www.w3.org/2000/svg">
<g clip-path="url(#clip0_454_13227)">
<path d="M48 88C42.4 88 37.1667 86.95 32.3 84.85C27.4333 82.75 23.2 79.9 19.6 76.3C16 72.7 13.1667 68.45 11.1 63.55C9.03333 58.65 8 53.4 8 47.8C8 42.2 9.03333 36.9833 11.1 32.15C13.1667 27.3167 16 23.1 19.6 19.5C23.2 15.9 27.4333 13.0833 32.3 11.05C37.1667 9.01667 42.4 8 48 8C53.6 8 58.8333 9.01667 63.7 11.05C68.5667 13.0833 72.8 15.9 76.4 19.5C80 23.1 82.8333 27.3167 84.9 32.15C86.9667 36.9833 88 42.2 88 47.8C88 53.4 86.9667 58.65 84.9 63.55C82.8333 68.45 80 72.7 76.4 76.3C72.8 79.9 68.5667 82.75 63.7 84.85C58.8333 86.95 53.6 88 48 88ZM63.8 33H78.8C76.6 28.4 73.5833 24.5667 69.75 21.5C65.9167 18.4333 61.5 16.2667 56.5 15C58.1667 17.4667 59.5833 20.1333 60.75 23C61.9167 25.8667 62.9333 29.2 63.8 33ZM38.4 33H57.8C57.0667 29.4667 55.8333 26.05 54.1 22.75C52.3667 19.45 50.3333 16.5333 48 14C45.8667 15.8 44.0667 18.1667 42.6 21.1C41.1333 24.0333 39.7333 28 38.4 33ZM15.2 56.9H31.1C30.9 55.1 30.7833 53.4833 30.75 52.05C30.7167 50.6167 30.7 49.2 30.7 47.8C30.7 46.1333 30.7333 44.65 30.8 43.35C30.8667 42.05 31 40.6 31.2 39H15.2C14.7333 40.6 14.4167 42.0333 14.25 43.3C14.0833 44.5667 14 46.0667 14 47.8C14 49.5333 14.0833 51.0833 14.25 52.45C14.4167 53.8167 14.7333 55.3 15.2 56.9ZM39.5 81C37.8333 78.4667 36.4 75.7333 35.2 72.8C34 69.8667 33 66.5667 32.2 62.9H17.2C19.7333 67.6333 22.6667 71.35 26 74.05C29.3333 76.75 33.8333 79.0667 39.5 81ZM17.2 33H32.3C33.0333 29.4 33.9667 26.1833 35.1 23.35C36.2333 20.5167 37.6667 17.7667 39.4 15.1C34.4 16.3667 30.0333 18.5 26.3 21.5C22.5667 24.5 19.5333 28.3333 17.2 33ZM48 82.2C50.3333 79.8 52.2833 77.05 53.85 73.95C55.4167 70.85 56.7 67.1667 57.7 62.9H38.4C39.3333 66.9 40.5833 70.5 42.15 73.7C43.7167 76.9 45.6667 79.7333 48 82.2ZM37.3 56.9H58.8C59.0667 54.8333 59.2333 53.15 59.3 51.85C59.3667 50.55 59.4 49.2 59.4 47.8C59.4 46.4667 59.3667 45.1833 59.3 43.95C59.2333 42.7167 59.0667 41.0667 58.8 39H37.3C37.0333 41.0667 36.8667 42.7167 36.8 43.95C36.7333 45.1833 36.7 46.4667 36.7 47.8C36.7 49.2 36.7333 50.55 36.8 51.85C36.8667 53.15 37.0333 54.8333 37.3 56.9ZM56.6 80.9C61.4 79.3667 65.7167 77.0667 69.55 74C73.3833 70.9333 76.4667 67.2333 78.8 62.9H63.9C63.0333 66.5 62.0167 69.7667 60.85 72.7C59.6833 75.6333 58.2667 78.3667 56.6 80.9ZM64.8 56.9H80.8C81.2667 55.3 81.5833 53.8167 81.75 52.45C81.9167 51.0833 82 49.5333 82 47.8C82 46.0667 81.9167 44.5667 81.75 43.3C81.5833 42.0333 81.2667 40.6 80.8 39H64.9C65.1 41.3333 65.2333 43.1167 65.3 44.35C65.3667 45.5833 65.4 46.7333 65.4 47.8C65.4 49.2667 65.35 50.65 65.25 51.95C65.15 53.25 65 54.9 64.8 56.9Z" fill="#0377C3"/>
<circle cx="68" cy="65" r="20" fill="#F9FAFD"/>
<path d="M82.1667 75.6667H80.3233L79.67 75.0367C81.9567 72.3767 83.3333 68.9233 83.3333 65.1667C83.3333 56.79 76.5433 50 68.1667 50C59.79 50 53 56.79 53 65.1667C53 73.5433 59.79 80.3333 68.1667 80.3333C71.9233 80.3333 75.3767 78.9567 78.0367 76.67L78.6667 77.3233V79.1667L90.3333 90.81L93.81 87.3333L82.1667 75.6667ZM68.1667 75.6667C62.3567 75.6667 57.6667 70.9767 57.6667 65.1667C57.6667 59.3567 62.3567 54.6667 68.1667 54.6667C73.9767 54.6667 78.6667 59.3567 78.6667 65.1667C78.6667 70.9767 73.9767 75.6667 68.1667 75.6667Z" fill="#0377C3"/>
</g>
<defs>
<clipPath id="clip0_454_13227">
<rect width="96" height="96" fill="white"/>
</clipPath>
</defs>
</svg>
