<svg width="75" height="64" viewBox="0 0 75 64" fill="none" xmlns="http://www.w3.org/2000/svg">
<path d="M16.166 32C16.166 28.5333 14.0327 25.6 10.8327 24.5333V15.4667C14.0327 14.4 16.166 11.4667 16.166 8C16.166 3.46667 12.6993 0 8.16602 0C3.63268 0 0.166016 3.46667 0.166016 8C0.166016 11.4667 2.29935 14.4 5.49935 15.4667V24.5333C2.29935 25.6 0.166016 28.5333 0.166016 32C0.166016 35.4667 2.29935 38.4 5.49935 39.4667V48.5333C2.29935 49.6 0.166016 52.5333 0.166016 56C0.166016 60.5333 3.63268 64 8.16602 64C12.6993 64 16.166 60.5333 16.166 56C16.166 52.5333 14.0327 49.6 10.8327 48.5333V39.4667C14.0327 38.4 16.166 35.4667 16.166 32ZM72.166 10.6667H29.4993C27.8993 10.6667 26.8327 9.6 26.8327 8C26.8327 6.4 27.8993 5.33333 29.4993 5.33333H72.166C73.766 5.33333 74.8327 6.4 74.8327 8C74.8327 9.6 73.766 10.6667 72.166 10.6667ZM72.166 34.6667H29.4993C27.8993 34.6667 26.8327 33.6 26.8327 32C26.8327 30.4 27.8993 29.3333 29.4993 29.3333H72.166C73.766 29.3333 74.8327 30.4 74.8327 32C74.8327 33.6 73.766 34.6667 72.166 34.6667ZM72.166 58.6667H29.4993C27.8993 58.6667 26.8327 57.6 26.8327 56C26.8327 54.4 27.8993 53.3333 29.4993 53.3333H72.166C73.766 53.3333 74.8327 54.4 74.8327 56C74.8327 57.6 73.766 58.6667 72.166 58.6667Z" fill="#0377C3"/>
</svg>
